<?xml version="1.0" encoding="UTF-8"?>
<svg id="Layer_1" xmlns="http://www.w3.org/2000/svg" viewBox="0 0 1148.55 231.45">
  <defs>
    <style>
      .cls-1 {
        fill: #ff8c00;
      }
      .cls-2 {
        fill: #ffffff;
      }
    </style>
  </defs>
  <g>
    <polygon class="cls-1" points="302.4 65.39 0 65.39 37.8 0 264.6 0 302.4 65.39"/>
    <polygon class="cls-1" points="302.4 165.91 264.6 231.45 189 231.45 151.2 165.91 189 100.52 264.6 100.52 302.4 165.91"/>
    <polygon class="cls-1" points="151.2 165.91 113.4 231.45 37.8 231.45 0 165.91 37.8 100.52 113.4 100.52 151.2 165.91"/>
  </g>
  <g class="cls-2">
    <path d="M513.71,55.15v131.2h-31.98l-53.48-80.92v80.92h-31.98V55.15h31.98l53.48,81.31V55.15h31.98Z"/>
    <path d="M630.12,186.36h-31.98v-14.2c-6.35,8.98-17.58,15.32-31.59,15.32-24.12,0-40.38-16.64-40.38-44.48v-60.93h31.78v56.62c0,14.2,8.05,22.05,20,22.05s20.19-7.85,20.19-22.05v-56.62h31.98v104.29Z"/>
    <path d="M642.52,48.07h31.98v138.31h-31.98V48.07Z"/>
    <path d="M686.93,48.07h31.98v138.31h-31.98V48.07Z"/>
    <path d="M730.59,48.07h101.53v25.59h-34.78v112.69h-31.98v-112.69h-34.78v-25.59Z"/>
    <path d="M861.49,80.58c15.52,0,26.54,7.11,32.17,16.26v-14.77h31.98v104.29h-31.98v-14.77c-5.8,9.17-16.84,16.26-32.33,16.26-25.44,0-45.82-20.93-45.82-53.82s20.38-53.46,45.99-53.46v.02ZM870.85,108.42c-11.98,0-22.8,8.98-22.8,25.62s10.85,25.98,22.8,25.98,22.8-9.17,22.8-25.79-10.66-25.79-22.8-25.79v-.02Z"/>
    <path d="M986.51,80.58c26.18,0,44.69,14.39,50.11,39.24h-34.04c-2.61-7.28-7.86-11.97-16.65-11.97-11.4,0-19.26,8.98-19.26,26.36s7.86,26.36,19.26,26.36c8.79,0,13.84-4.31,16.65-11.97h34.04c-5.41,24.11-23.93,39.24-50.11,39.24-30.66,0-52.36-20.57-52.36-53.65s21.7-53.63,52.36-53.63v.02Z"/>
    <path d="M1045.15,48.07h31.98v76.45l31.59-42.42h39.45l-43.38,52.34,43.76,51.95h-39.64l-31.78-43.74v43.74h-31.98V48.07Z"/>
  </g>
</svg>